<svg id="Layer_1" data-name="Layer 1" xmlns="http://www.w3.org/2000/svg" viewBox="0 0 109.77 122.88"><defs><style>.cls-1{fill-rule:evenodd;}</style></defs><title>digital-media</title><path class="cls-1" d="M36.3,0H80.44A13.28,13.28,0,0,1,93.71,13.28v28.4H89.12V13.15H27.6v4.5H23V13.26A13.25,13.25,0,0,1,36.3,0ZM14.75,35.76a3.41,3.41,0,1,1-3.41,3.4,3.4,3.4,0,0,1,3.41-3.4ZM29.08,50.37l6.8-11.77,4.64,11.71,0,6.59H9.35V54.63l2.84-.15L15,47.53l1.42,5H20.7L24.39,43l4.69,7.38ZM5.63,25.08H44.88a5.67,5.67,0,0,1,5.63,5.63V58.77a5.67,5.67,0,0,1-5.63,5.62H5.63A5.65,5.65,0,0,1,0,58.77V30.71a5.65,5.65,0,0,1,5.63-5.63Zm39.25,3.46H5.63a2.17,2.17,0,0,0-2.17,2.17V58.77a2.15,2.15,0,0,0,2.17,2.16H44.88A2.15,2.15,0,0,0,47,58.77V30.71a2.17,2.17,0,0,0-2.16-2.17ZM73.94,76.23a1.52,1.52,0,1,1,0-3h21a1.52,1.52,0,1,1,0,3Zm0-9.3a1.52,1.52,0,1,1,0-3H99.65a1.52,1.52,0,0,1,0,3Zm.91,24.78,7.56-7.25a1.5,1.5,0,0,1,1-.42h22.44a.85.85,0,0,0,.85-.85V57.33a.87.87,0,0,0-.85-.86H66.75a.85.85,0,0,0-.6.26l-.05,0a.86.86,0,0,0-.21.56V83.18a.86.86,0,0,0,.25.6.89.89,0,0,0,.61.25h6.58a1.52,1.52,0,0,1,1.52,1.52v6.16Zm9.21-4.65-9.61,9.22a1.53,1.53,0,0,1-1.12.49,1.52,1.52,0,0,1-1.51-1.52V87.06H66.75a3.89,3.89,0,0,1-3.89-3.88V57.33a3.87,3.87,0,0,1,1.06-2.65l.09-.09a3.84,3.84,0,0,1,2.74-1.15h39.14a3.89,3.89,0,0,1,3.88,3.89V83.18a3.89,3.89,0,0,1-3.88,3.88Zm9.65,10.51v12a13.28,13.28,0,0,1-13.27,13.28H36.3A13.28,13.28,0,0,1,23,109.6V71.83H27.6v32.61H89.12V97.57Zm-35.36,11a5.46,5.46,0,1,1-5.46,5.45,5.45,5.45,0,0,1,5.46-5.45Z"/></svg>