<svg id="Layer_1" data-name="Layer 1" xmlns="http://www.w3.org/2000/svg" viewBox="0 0 122.88 83.38"><defs><style>.cls-1{fill-rule:evenodd;}</style></defs><title>family-group</title><path class="cls-1" d="M68.58,63.51v16a4.08,4.08,0,0,0,4.21,3.9h0A4.08,4.08,0,0,0,77,79.48v-16h2v16a4.09,4.09,0,0,0,4.22,3.9h0a4.08,4.08,0,0,0,4.21-3.9v-16h6l-6-28.22c.21.46.41.92.61,1.39A51.08,51.08,0,0,1,91.19,47,4,4,0,0,0,95,50.23h.06a3,3,0,0,0,2.75-1.13A3.93,3.93,0,0,0,99,45.56l-.08-.47a38,38,0,0,1,1.47-5.2c.22-.59.45-1.17.69-1.73v1.12L96.92,58.91H101V69.78a2.83,2.83,0,0,0,2.89,2.76h0a2.84,2.84,0,0,0,2.9-2.76V58.91h1.8V69.78a2.83,2.83,0,0,0,2.89,2.76h0a2.84,2.84,0,0,0,2.9-2.76V58.91h4.52l-4.52-20V38.5c.23.54.44,1.09.65,1.66A38,38,0,0,1,117,48a3,3,0,0,0,5.86-.81,44.45,44.45,0,0,0-2.23-9,39.06,39.06,0,0,0-4-8,3,3,0,0,0-2.24-1.32h0c-3.16-1-9.1-1-13.35-.26h0a2.92,2.92,0,0,0-2.25,1.32A37.42,37.42,0,0,0,96,35c-.18-.46-.36-.91-.55-1.36a52,52,0,0,0-5.85-10.47,3.91,3.91,0,0,0-2.41-1.54v0a48.89,48.89,0,0,0-18.29,0v0a3.88,3.88,0,0,0-2.63,1.58A50.93,50.93,0,0,0,61,32.3a50.72,50.72,0,0,0-4.75-9.19,3.87,3.87,0,0,0-2.62-1.69v-.08C49,20,40.29,20,35.32,21.19v.12a3.83,3.83,0,0,0-3,1.73A51.2,51.2,0,0,0,27,33.75l-.18.49a37,37,0,0,0-2.54-4.55A3,3,0,0,0,22,28.37c-1.42-.61-12.74-1-14.15.13a3,3,0,0,0-1.56,1.19,39.06,39.06,0,0,0-4,8,44.45,44.45,0,0,0-2.23,9,3,3,0,0,0,5.85.81,38.39,38.39,0,0,1,1.8-7.44V69.55a3.05,3.05,0,0,0,3.11,3h0a3,3,0,0,0,3.1-3V53.44h1.93V69.55a3.05,3.05,0,0,0,3.11,3h0a3,3,0,0,0,3.1-3V38.06c.23.55.45,1.1.66,1.68a37.22,37.22,0,0,1,1.45,5l-.15,1a3.85,3.85,0,0,0,7.63,1.06,51.18,51.18,0,0,1,2.59-10.48c.35-1,.72-1.9,1.11-2.79v45.9a4.08,4.08,0,0,0,4.21,3.9h0a4.09,4.09,0,0,0,4.22-3.9v-25h1.43v25a4.09,4.09,0,0,0,4.22,3.9h0a4.08,4.08,0,0,0,4.21-3.9V34.59c.25.6.49,1.22.72,1.85A51.9,51.9,0,0,1,56.78,46a4,4,0,0,0,7.82,1.05,51.08,51.08,0,0,1,3.08-10.33c.31-.75.64-1.48,1-2.18l-6.1,29ZM107.8,13.33a6.44,6.44,0,1,1-6.43,6.43,6.43,6.43,0,0,1,6.43-6.43ZM15,12.52a6.9,6.9,0,1,1-6.9,6.9,6.9,6.9,0,0,1,6.9-6.9ZM44.22,0A9.12,9.12,0,1,1,35.1,9.12,9.12,9.12,0,0,1,44.22,0ZM77.76,0a9.12,9.12,0,1,1-9.12,9.12A9.12,9.12,0,0,1,77.76,0Z"/></svg>