<?xml version="1.0" encoding="utf-8"?><svg version="1.1" id="Layer_1" xmlns="http://www.w3.org/2000/svg" xmlns:xlink="http://www.w3.org/1999/xlink" x="0px" y="0px" viewBox="0 0 122.88 109.07" style="enable-background:new 0 0 122.88 109.07" xml:space="preserve"><style type="text/css">.st0{fill-rule:evenodd;clip-rule:evenodd;}</style><g><path class="st0" d="M0,55.79h24.83v44.18H0V55.79L0,55.79z M83.64,16.24c1.38-3.11,2.9-6.06,4.73-8.55 c3.69-5.07,12.72-11.17,18.24-5.26c4.94,5.28,0.75,11.06-5.13,13.81h13.32c1.03,0,2,0.43,2.66,1.12c0.69,0.69,1.12,1.63,1.12,2.66 v7.18c0,1.03-0.43,2-1.12,2.66c-0.62,0.62-1.44,1.03-2.36,1.1v33.79c7,0.63,10.78,8.59,4.87,14.42 c-13.9,10.11-28.15,18.43-42.73,25.15c-10.59,6.44-21.18,6.22-31.76,0l-15.64-8.06V59.34h16.61c1.36,0.24,2.72,0.58,4.08,1V30.98 c-0.95-0.06-1.8-0.47-2.45-1.1c-0.69-0.69-1.12-1.63-1.12-2.66v-7.18c0-1.03,0.43-2,1.12-2.66c0.69-0.69,1.63-1.12,2.66-1.12h13.56 c-5.86-2.75-10.05-8.53-5.13-13.81c5.52-5.93,14.54,0.19,18.24,5.26c1.83,2.51,3.35,5.46,4.73,8.55h1.48L83.64,16.24L83.64,16.24z M101.03,70.06H84.24c3.04,2,3.68,6.05-0.56,8.95c-4.52,3.32-10.49,3.13-16.61,2.58c-4.22-0.21-4.4,5.46,0,5.48 c1.53,0.12,3.19-0.24,4.64-0.24c7.64-0.01,13.92-1.47,17.77-7.5l1.93-4.51L101.03,70.06L101.03,70.06z M53.65,61.45 c3.58,1.41,7.15,3.31,10.73,5.45H77.9V53.08H53.65V61.45L53.65,61.45z M107.4,66.9l3.21-1.59c0.46-0.15,0.92-0.27,1.37-0.37V53.08 h-0.02H88.04V66.9H107.4L107.4,66.9z M95.69,16.24c13.47-5.97,9-16.03,0.47-11.17c-2,1.14-3.67,3.27-5.18,5.39 c-1.42,2-2.69,4.1-3.63,5.78H95.69L95.69,16.24z M70.08,16.24c-13.47-5.97-9-16.03-0.47-11.17c2,1.14,3.67,3.27,5.18,5.39 c1.42,2,2.69,4.1,3.63,5.78H70.08L70.08,16.24z M53.65,44.68H77.9V29.47H53.65V44.68L53.65,44.68z M88.02,44.68h23.91V29.47H88.02 V44.68L88.02,44.68z"/></g></svg>