<?xml version="1.0" encoding="utf-8"?><svg version="1.1" id="Layer_1" xmlns="http://www.w3.org/2000/svg" xmlns:xlink="http://www.w3.org/1999/xlink" x="0px" y="0px" viewBox="0 0 88.5 122.88" style="enable-background:new 0 0 88.5 122.88" xml:space="preserve"><g><path d="M36.19,122.88V96.34H5.13c-5.2,0.48-6.26-3.63-4.03-7.04l19.84-23.26l-0.57-0.57H9.75c-3.85,0.57-5.27-3.6-2.94-6.53 l21.37-25.1h-6.24c-3.91,0.1-4.87-3.49-2.37-6.88L39.04,3.84C40.37,2.26,41.79-0.05,44.1,0c1.99,0.04,3.19,1.93,4.37,3.31 l20.7,24.14c2.25,3.22,0.33,6.61-3.59,6.61H60l21.22,24.87c2.55,2.52,1.25,6.55-1.68,7.11H67.21l18.5,21.7 c2.17,2.55,5.27,7.91-0.54,8.6H51.83v26.54H36.19L36.19,122.88z"/></g></svg>