<?xml version="1.0" encoding="utf-8"?><svg version="1.1" id="Layer_1" xmlns="http://www.w3.org/2000/svg" xmlns:xlink="http://www.w3.org/1999/xlink" x="0px" y="0px" viewBox="0 0 122.88 78.63" style="enable-background:new 0 0 122.88 78.63" xml:space="preserve"><style type="text/css">.st0{fill-rule:evenodd;clip-rule:evenodd;}</style><g><path class="st0" d="M3.36,0h7.3c1.85,0,3.36,1.56,3.36,3.36v43.77h37.33L61.99,9.69h41.85c10.47,0,19.04,8.59,19.04,19.04v19.04 h-0.02c0.01,0.12,0.02,0.24,0.02,0.37v30.49h-14.02V64.32H14.02v13.66H0V3.36C0,1.51,1.51,0,3.36,0L3.36,0z M35.44,10.37 c8.62,0,15.61,6.99,15.61,15.61c0,8.62-6.99,15.61-15.61,15.61c-8.62,0-15.61-6.99-15.61-15.61 C19.83,17.36,26.82,10.37,35.44,10.37L35.44,10.37z"/></g></svg>